<svg id="Layer_1" data-name="Layer 1" xmlns="http://www.w3.org/2000/svg" viewBox="0 0 1484 1483.83"><defs><style>.cls-1{fill:#ec4c37;}</style></defs><title>applemusicbutton</title><path class="cls-1" d="M1,.33v1483H1484V.33ZM824.94,919.76c-2.57,30.38-7.48,70.83-13.89,112-4.54,29.36-8.27,45.18-11.62,56.51-5.48,18.39-25.87,34.44-57.78,34.44s-52.35-16.09-57.79-34.44c-3.36-11.35-7.06-27.19-11.62-56.51-6.41-41.2-11.31-81.69-13.88-112-2.7-31.83-4.11-51.77-1.59-74.9a45.56,45.56,0,0,1,13.13-28.5c14.86-15.7,41-25.74,71.76-25.74s56.88,10.08,71.74,25.74a45.34,45.34,0,0,1,13.12,28.5C829,868,827.63,887.93,824.94,919.76Zm-212.16-77a14.4,14.4,0,0,1,4.55,11.33,328.11,328.11,0,0,0,.41,39.79,4.63,4.63,0,0,1-.79,2.89,4.55,4.55,0,0,1-6.33,1.18A233.24,233.24,0,0,1,508.67,702.22c1.55-123.52,100.58-225.25,224-230q4.41-.18,8.8-.18C870.35,471.9,975,576.31,975.09,705.23a233.18,233.18,0,0,1-102,192.67,4.66,4.66,0,0,1-2.83.76,4.58,4.58,0,0,1-4.33-4.84,342.46,342.46,0,0,0,.39-39.74,14.63,14.63,0,0,1,4.56-11.33,188.13,188.13,0,0,0,59.64-137.49q0-3.53-.14-7c-4-104.23-91.74-185.48-196-181.47a188.56,188.56,0,0,0-121.67,326Zm210-166a81,81,0,1,1-81-81A81,81,0,0,1,822.78,676.78ZM857,1033.63a4.38,4.38,0,0,1-2.27.22,4.63,4.63,0,0,1-3.87-5.29q2.69-17.79,5-35.63a12,12,0,0,1,7-9.42,304,304,0,0,0,182.5-278.35c0-168.22-137.58-304.95-306.11-303.59C574.41,402.9,439.79,537.31,438.2,702.16A304.08,304.08,0,0,0,620.66,983.47a11.91,11.91,0,0,1,7,9.41c1.55,11.8,3.23,23.74,5.05,35.67a4.86,4.86,0,0,1-.23,2.21,4.67,4.67,0,0,1-6,2.88c-136.83-48.1-234.8-179.4-232.9-332.89C396,511.26,551.24,357.54,740.73,357c192.44-.53,349.16,155.84,349.15,348.11C1089.88,856.71,992.45,986,857,1033.63Z"/></svg>