<svg id="Layer_1" data-name="Layer 1" xmlns="http://www.w3.org/2000/svg" viewBox="0 0 1484 1483.83"><defs><style>.cls-1{fill:#b8c1ae;}.cls-2{fill:#679e33;}.cls-3{fill:#ec4c37;}</style></defs><title>spotifybutton</title><path class="cls-1" d="M958.69,917.14a32.06,32.06,0,0,1,10.21,43.41l0,0a30.83,30.83,0,0,1-42.38,10.22C871.57,937.24,809.93,916,742,907c-75.77-10-159.37-4.64-250.2,16.11a30.83,30.83,0,0,1-36.92-23.2.07.07,0,0,1,0,0A31.9,31.9,0,0,1,478.07,862C573,840.27,661.21,834.2,742,843.72c79.56,9.38,152,33.87,216.68,73.41Z"/><path class="cls-1" d="M1035.16,804.7c0,.17,0,.35,0,.52s0,.32,0,.48a38.59,38.59,0,0,1-58.77,32.81c-65.72-40.39-148.49-66.61-234.39-77-87.91-10.67-179.11-4.8-258.68,19.36A39.06,39.06,0,0,1,460.9,706c87.73-26.62,185.86-33.95,281.1-23.56,99.88,10.89,196.57,41.26,274.76,89.3A38.61,38.61,0,0,1,1035.16,804.7Z"/><path class="cls-1" d="M1104.58,644.75c0,.17,0,.34,0,.51s0,.33,0,.49a46.28,46.28,0,0,1-69.9,39.75c-80.4-47.74-187.11-73.63-292.68-81.65-103.88-7.9-206.67,1.51-282.19,24.43a46.76,46.76,0,0,1-26.87-89.57C517.33,513.1,628.71,502.24,742,510.13c121.37,8.44,245,38.4,339.92,94.77A46.27,46.27,0,0,1,1104.58,644.75Z"/><rect class="cls-2" y="990.33" width="247" height="247"/><rect class="cls-2" x="247" y="1237.33" width="247" height="247"/><rect class="cls-2" x="1236" y="990.33" width="247" height="247"/><rect class="cls-2" x="989" y="1237.33" width="247" height="247"/><rect class="cls-2" x="1236" y="247.33" width="247" height="247"/><rect class="cls-2" x="989" y="0.33" width="247" height="247"/><rect class="cls-2" x="247" y="0.33" width="247" height="247"/><rect class="cls-2" y="247.33" width="247" height="247"/><path class="cls-3" d="M973.43,944a30.72,30.72,0,0,1-4.53,16.55l0,0a30.83,30.83,0,0,1-42.38,10.22C871.57,937.24,809.93,916,742,907c-75.77-10-159.37-4.64-250.2,16.11a30.83,30.83,0,0,1-36.92-23.2.07.07,0,0,1,0,0A31.9,31.9,0,0,1,478.07,862C573,840.27,661.21,834.2,742,843.72c79.56,9.38,152,33.87,216.68,73.41h0A30.82,30.82,0,0,1,973.43,944Z"/><path class="cls-3" d="M1035.16,804.7c0,.17,0,.35,0,.52s0,.32,0,.48a38.59,38.59,0,0,1-58.77,32.81c-65.72-40.39-148.49-66.61-234.39-77-87.91-10.67-179.11-4.8-258.68,19.36A39.06,39.06,0,0,1,460.9,706c87.73-26.62,185.86-33.95,281.1-23.56,99.88,10.89,196.57,41.26,274.76,89.3A38.61,38.61,0,0,1,1035.16,804.7Z"/><path class="cls-3" d="M1104.58,644.75c0,.17,0,.34,0,.51s0,.33,0,.49a46.28,46.28,0,0,1-69.9,39.75c-80.4-47.74-187.11-73.63-292.68-81.65-103.88-7.9-206.67,1.51-282.19,24.43a46.76,46.76,0,0,1-26.87-89.57C517.33,513.1,628.71,502.24,742,510.13c121.37,8.44,245,38.4,339.92,94.77A46.27,46.27,0,0,1,1104.58,644.75Z"/><path class="cls-3" d="M1,.33v1483H1484V.33ZM1237,743c0,1,0,2,0,3q-.11,13.93-1,27.68c-15.79,250-217.19,449.66-468,462.66h-3.52q-11.19.5-22.51.5t-22.22-.5C462,1225,255.45,1016.39,247.25,757.79c-.16-5.07-.24-10.18-.25-15.29V742c0-1,0-2,0-3q0-6,.23-12c8.24-260,217-469.38,476.65-478.71h36.37C1014.6,257.56,1220,458.67,1236,711.21q.87,13.8,1,27.79c0,1,0,2,0,3Z"/></svg>