<svg id="Layer_1" data-name="Layer 1" xmlns="http://www.w3.org/2000/svg" viewBox="0 0 1484 1483.83"><defs><style>.cls-1{fill:#ec4c37;}</style></defs><title>tuneinbutton</title><path class="cls-1" d="M0,.33v1483H1483V.33ZM878.37,1094.05c0,78.89-64.2,143-143.08,143l-125.38,0c-8.9,0-15.91-6.78-15.91-15.47V966.54A15.52,15.52,0,0,1,609.5,951H862.81a15.55,15.55,0,0,1,15.56,15.51Zm0-199.7a15.57,15.57,0,0,1-15.57,15.56,7.16,7.16,0,0,0-.9,0l-438.44,0c-78.84,0-143-64.16-143-143.08V639.33a15.49,15.49,0,0,1,15.5-15.5H734.79C814,623.83,878.38,688,878.38,766.9Zm-142.23-321a163,163,0,1,1,163-163A163,163,0,0,1,736.15,573.37Zm467.59,193.42c0,78.89-64.12,143-143,143l-125.42,0a15.52,15.52,0,0,1-15.89-15.48V766.83c0-78.91,64.21-143.09,143.1-143.09h125.75a15.52,15.52,0,0,1,15.47,15.51Z"/></svg>